#!OML:ASF I:\Actors\actors\Patient Classification 2\Patient 1\Session 1\actor1.ASF
:FULLY-SPECIFIED
:DEGREES
620
root -0.62261 18.8063 5.96901 6.72999 5.87878 1.99906
lowerback 20.1821 -1.65509 7.22236
upperback 9.35629 -0.624792 5.6772
thorax -1.11662 -0.209467 2.10477
lowerneck -6.57742 0.985062 2.13169
upperneck -7.97723 0.747182 -9.95688
head -1.35594 0.424228 -3.61677
rclavicle -3.18055e-015 -3.18055e-015
rhumerus -43.3049 3.54503 -90.4726
rradius 68.6496
rwrist 25.2639
rhand -5.41491 -51.7239
rfingers 7.12502
rthumb 20.3947 -80.6729
lclavicle -3.18055e-015 -3.18055e-015
lhumerus -29.9154 -25.3352 107.567
lradius 49.1078
lwrist -13.4694
lhand 4.10048 -18.4474
lfingers 7.12502
lthumb 29.5116 9.22719
rfemur 0 0 0
rtibia 0
rfoot 0 0
rtoes 0
lfemur -13.3359 -7.57388 -16.2198
ltibia 23.6362
lfoot -16.3268 8.36691
ltoes -55.8393
621
root -0.60866 18.8069 5.96996 6.80699 5.9328 2.12591
lowerback 20.2979 -1.7541 7.55249
upperback 9.18463 -0.661115 5.75547
thorax -1.36007 -0.226705 2.01641
lowerneck -6.93845 0.963147 1.70628
upperneck -7.86551 0.743823 -10.1554
head -1.25813 0.423982 -3.60127
rclavicle 1.11319e-014 2.38542e-014
rhumerus -43.6676 3.45153 -90.4459
rradius 68.953
rwrist 25.5051
rhand -5.58078 -51.9456
rfingers 7.12502
rthumb 20.2353 -80.9115
lclavicle 1.11319e-014 2.38542e-014
lhumerus -30.2003 -25.1817 107.765
lradius 49.0601
lwrist -13.5499
lhand 3.95178 -18.5483
lfingers 7.12502
lthumb 29.3697 9.15131
rfemur 0 0 0
rtibia 0
rfoot 0 0
rtoes 0
lfemur -13.4079 -7.5027 -16.3926
ltibia 23.6264
lfoot -16.2998 8.23461
ltoes -55.7722
622
root -0.597551 18.8089 5.97008 7.00753 6.02546 2.28978
lowerback 20.258 -1.85646 7.86551
upperback 8.9885 -0.720457 5.82027
thorax -1.55248 -0.255463 1.92501
lowerneck -7.18627 0.9574 1.4885
upperneck -7.80601 0.741383 -10.5159
head -1.19627 0.423419 -3.68474
rclavicle 1.11319e-014 6.20208e-014
rhumerus -44.0325 3.3546 -90.4386
rradius 69.2896
rwrist 25.6632
rhand -5.76312 -52.2964
rfingers 7.12502
rthumb 20.0601 -81.2808
lclavicle 1.11319e-014 6.20208e-014
lhumerus -30.4532 -25.0253 107.94
lradius 49
lwrist -13.6536
lhand 3.67813 -18.5009
lfingers 7.12502
lthumb 29.1084 9.24421
rfemur 0 0 0
rtibia 0
rfoot 0 0
rtoes 0
lfemur -13.6134 -7.3885 -16.5763
ltibia 23.5885
lfoot -16.2367 8.0535
ltoes -55.8217
623
root -0.590794 18.8119 5.96797 7.2484 6.17235 2.46379
lowerback 20.1678 -1.96575 8.22959
upperback 8.79363 -0.786266 5.85359
thorax -1.71891 -0.285537 1.77186
lowerneck -7.34366 0.91588 1.53857
upperneck -7.88912 0.653436 -11.065
head -1.20149 0.380288 -3.89193
rclavicle -2.38542e-014 4.45278e-014
rhumerus -44.294 3.1787 -90.4437
rradius 69.5556
rwrist 25.8082
rhand -5.92528 -52.7163
rfingers 7.12502
rthumb 19.9042 -81.717
lclavicle -2.38542e-014 4.45278e-014
lhumerus -30.6465 -24.9795 108.075
lradius 48.9146
lwrist -13.7395
lhand 3.3187 -18.4563
lfingers 7.12502
lthumb 28.7651 9.34759
rfemur 0 0 0
rtibia 0
rfoot 0 0
rtoes 0
lfemur -13.8752 -7.21784 -16.7435
ltibia 23.5367
lfoot -16.0978 7.77326
ltoes -55.8557
624
root -0.583079 18.8141 5.96791 7.40096 6.29981 2.60585
lowerback 20.1417 -2.08215 8.67339
upperback 8.61645 -0.841158 5.85509
thorax -1.89909 -0.308916 1.54001
lowerneck -7.51645 0.852077 1.54128
upperneck -7.93729 0.545167 -11.5228
head -1.19486 0.32572 -4.05903
rclavicle 4.77083e-015 -5.40694e-014
rhumerus -44.4841 2.91379 -90.5057
rradius 69.7051
rwrist 26.0259
rhand -6.00447 -53.12
rfingers 7.12502
rthumb 19.8281 -82.1286
lclavicle 4.77083e-015 -5.40694e-014
lhumerus -30.892 -24.973 108.17
lradius 48.8475
lwrist -13.8382
lhand 3.08865 -18.5631
lfingers 7.12502
lthumb 28.5453 9.27793
rfemur 0 0 0
rtibia 0
rfoot 0 0
rtoes 0
lfemur -14.0188 -7.00268 -16.898
ltibia 23.4752
lfoot -15.9743 7.48222
ltoes -55.8804
625
root -0.571834 18.8158 5.97264 7.49575 6.34103 2.70406
lowerback 20.1288 -2.18294 9.12063
upperback 8.44892 -0.872768 5.89475
thorax -2.0744 -0.322776 1.34345
lowerneck -7.75334 0.798096 1.32666
upperneck -7.83435 0.484074 -11.9024
head -1.12491 0.292772 -4.15336
rclavicle -4.13472e-014 1.59028e-015
rhumerus -44.7433 2.72106 -90.5356
rradius 69.8907
rwrist 26.2123
rhand -6.14328 -53.3867
rfingers 7.12502
rthumb 19.6946 -82.409
lclavicle -4.13472e-014 1.59028e-015
lhumerus -31.1883 -24.8545 108.315
lradius 48.7885
lwrist -13.9392
lhand 3.0211 -18.695
lfingers 7.12502
lthumb 28.4807 9.15691
rfemur 0 0 0
rtibia 0
rfoot 0 0
rtoes 0
lfemur -14.0544 -6.76204 -17.0368
ltibia 23.3976
lfoot -15.9361 7.25632
ltoes -55.9717
626
root -0.559653 18.818 5.98017 7.5846 6.32258 2.7974
lowerback 20.1158 -2.26594 9.5307
upperback 8.27642 -0.885804 5.96924
thorax -2.25396 -0.330485 1.20181
lowerneck -8.03801 0.753146 1.09132
upperneck -7.65009 0.444921 -12.3783
head -1.01824 0.266297 -4.27809
rclavicle 1.43125e-014 6.20208e-014
rhumerus -45.0897 2.59655 -90.5093
rradius 70.1997
rwrist 26.3895
rhand -6.21793 -53.6678
rfingers 7.12502
rthumb 19.6228 -82.6974
lclavicle 1.43125e-014 6.20208e-014
lhumerus -31.453 -24.6845 108.514
lradius 48.6803
lwrist -13.9853
lhand 2.84458 -18.8259
lfingers 7.12502
lthumb 28.312 9.05404
rfemur 0 0 0
rtibia 0
rfoot 0 0
rtoes 0
lfemur -14.0609 -6.52231 -17.1766
ltibia 23.3097
lfoot -15.9239 7.02573
ltoes -55.9521
627
root -0.551281 18.8196 5.98047 7.68511 6.44857 2.93366
lowerback 20.1538 -2.406 9.92393
upperback 8.05992 -0.961029 6.03665
thorax -2.51137 -0.372723 1.07869
lowerneck -8.27659 0.732125 0.833319
upperneck -7.48431 0.443849 -12.7771
head -0.922783 0.25993 -4.37085
rclavicle -1.27222e-014 4.77083e-015
rhumerus -45.4653 2.51145 -90.5298
rradius 70.5125
rwrist 26.5381
rhand -6.29397 -54.0623
rfingers 7.12502
rthumb 19.5497 -83.0994
lclavicle -1.27222e-014 4.77083e-015
lhumerus -31.7175 -24.503 108.678
lradius 48.559
lwrist -14.0543
lhand 2.56905 -19.0157
lfingers 7.12502
lthumb 28.0487 8.90773
rfemur 0 0 0
rtibia 0
rfoot 0 0
rtoes 0
lfemur -14.1361 -6.40525 -17.3303
ltibia 23.2189
lfoot -15.7917 6.77776
ltoes -55.9257
628
root -0.547031 18.82 5.97364 7.81567 6.69648 3.10622
lowerback 20.2199 -2.59334 10.3014
upperback 7.80607 -1.08895 6.09969
thorax -2.82821 -0.444475 0.974482
lowerneck -8.45437 0.729458 0.497833
upperneck -7.39041 0.470563 -13.0823
head -0.859853 0.273213 -4.41488
rclavicle 3.18055e-015 3.02153e-014
rhumerus -45.7887 2.47556 -90.5746
rradius 70.7157
rwrist 26.6574
rhand -6.4347 -54.2177
rfingers 7.12502
rthumb 19.4144 -83.2685
lclavicle 3.18055e-015 3.02153e-014
lhumerus -31.9983 -24.3154 108.803
lradius 48.5154
lwrist -14.1201
lhand 2.48051 -18.9974
lfingers 7.12502
lthumb 27.964 8.93984
rfemur 0 0 0
rtibia 0
rfoot 0 0
rtoes 0
lfemur -14.2888 -6.35146 -17.4931
ltibia 23.1243
lfoot -15.5861 6.47613
ltoes -56.0015
629
root -0.541824 18.8197 5.97234 7.93842 6.83734 3.27645
lowerback 20.2265 -2.73499 10.6875
upperback 7.58077 -1.16886 6.14602
thorax -3.08241 -0.491408 0.835473
lowerneck -8.60323 0.710794 0.20862
upperneck -7.30926 0.468866 -13.4712
head -0.808025 0.272153 -4.50033
rclavicle -2.06736e-014 2.22639e-014
rhumerus -46.0197 2.4201 -90.5878
rradius 70.7921
rwrist 26.835
rhand -6.44096 -54.2167
rfingers 7.12502
rthumb 19.4084 -83.2681
lclavicle -2.06736e-014 2.22639e-014
lhumerus -32.234 -24.139 108.926
lradius 48.4435
lwrist -14.2384
lhand 2.50099 -18.894
lfingers 7.12502
lthumb 27.9836 9.04002
rfemur 0 0 0
rtibia 0
rfoot 0 0
rtoes 0
lfemur -14.3895 -6.20217 -17.6727
ltibia 23.0276
lfoot -15.4417 6.15566
ltoes -56.0322
630
root -0.535472 18.8195 5.97688 8.03394 6.87826 3.425
lowerback 20.162 -2.82875 11.1013
upperback 7.38577 -1.19808 6.16712
thorax -3.26522 -0.511415 0.639996
lowerneck -8.76906 0.686046 -0.021488
upperneck -7.11636 0.470026 -13.8743
head -0.715696 0.264448 -4.60228
rclavicle -2.22639e-014 -3.49861e-014
rhumerus -46.2479 2.32988 -90.6094
rradius 70.8421
rwrist 27.0331
rhand -6.37844 -54.4494
rfingers 7.12502
rthumb 19.4685 -83.4947
lclavicle -2.22639e-014 -3.49861e-014
lhumerus -32.4931 -23.983 109.039
lradius 48.3355
lwrist -14.4298
lhand 2.49471 -18.9604
lfingers 7.12502
lthumb 27.9776 8.97461
rfemur 0 0 0
rtibia 0
rfoot 0 0
rtoes 0
lfemur -14.4066 -6.01713 -17.8444
ltibia 22.9107
lfoot -15.3558 5.89528
ltoes -55.9947
631
root -0.532023 18.8202 5.98096 8.11853 6.97536 3.5487
lowerback 20.1032 -2.93271 11.5043
upperback 7.19181 -1.2395 6.20909
thorax -3.4508 -0.538823 0.476958
lowerneck -9.03879 0.668041 -0.272372
upperneck -6.85096 0.499766 -14.257
head -0.578883 0.262806 -4.69208
rclavicle -5.40694e-014 -5.08889e-014
rhumerus -46.4924 2.21987 -90.6315
rradius 70.9402
rwrist 27.195
rhand -6.31145 -54.7313
rfingers 7.12502
rthumb 19.5329 -83.7702
lclavicle -5.40694e-014 -5.08889e-014
lhumerus -32.7996 -23.8863 109.148
lradius 48.2963
lwrist -14.5437
lhand 2.40046 -18.9894
lfingers 7.12502
lthumb 27.8875 8.96026
rfemur 0 0 0
rtibia 0
rfoot 0 0
rtoes 0
lfemur -14.3976 -5.83521 -17.9706
ltibia 22.7433
lfoot -15.2572 5.58509
ltoes -55.9537
